<?xml version="1.0" standalone="no"?>
<!DOCTYPE svg PUBLIC "-//W3C//DTD SVG 20010904//EN"
 "http://www.w3.org/TR/2001/REC-SVG-20010904/DTD/svg10.dtd">
<svg version="1.0" xmlns="http://www.w3.org/2000/svg"
 width="512.000000pt" height="512.000000pt" viewBox="0 0 512.000000 512.000000"
 preserveAspectRatio="xMidYMid meet">
<metadata>
Created by potrace 1.14, written by Peter Selinger 2001-2017
</metadata>
<g transform="translate(0.000000,512.000000) scale(0.100000,-0.100000)"
fill="#000000" stroke="none">
<path d="M1069 5108 c-9 -7 -85 -123 -169 -258 -84 -135 -168 -267 -185 -295
-18 -27 -69 -107 -113 -177 l-80 -127 68 -108 67 -108 -51 -65 c-132 -169
-270 -407 -346 -595 -17 -44 -36 -89 -40 -100 -20 -46 -84 -277 -95 -345 -3
-19 -10 -62 -16 -95 -46 -257 -40 -554 16 -870 12 -62 66 -255 96 -341 70
-198 225 -491 325 -613 7 -9 33 -43 57 -76 65 -87 224 -252 330 -343 168 -143
321 -244 522 -341 219 -107 321 -143 555 -194 191 -42 282 -51 515 -52 255 0
394 17 620 74 295 75 570 207 829 396 411 299 717 719 880 1206 39 117 49 156
80 314 39 200 48 387 35 700 -3 71 1 106 18 165 63 218 71 439 27 695 -8 49
-18 93 -20 97 -3 5 -8 20 -10 35 -8 44 -74 213 -112 288 -78 153 -189 302
-308 417 -83 80 -179 158 -193 158 -6 0 -11 4 -11 8 0 11 -119 81 -221 130
-201 97 -457 155 -679 153 -87 -1 -207 -11 -250 -20 -19 -4 -48 -4 -65 1 -51
14 -217 46 -275 54 -30 4 -66 9 -80 11 -48 9 -435 11 -495 3 -33 -5 -80 -11
-105 -14 -25 -3 -70 -10 -100 -16 -30 -6 -68 -13 -85 -16 -123 -22 -412 -121
-536 -184 -23 -12 -45 -18 -48 -13 -7 8 -51 77 -206 323 -78 124 -99 150 -120
150 -6 0 -18 -6 -26 -12z"/>
</g>
</svg>
